<svg width="993" height="329" viewBox="0 0 993 329" fill="none" xmlns="http://www.w3.org/2000/svg">
<path d="M156 218.72L253 116C271 98.5 294.8 69.6525 310 104.853C329 148.853 308 333 399 209C490 85 516.687 69 536 69C552 69 574.92 105.522 580 121.868C599 183 599.612 288.051 680 192C732 129.868 729 119.353 757 92.3525C773.619 76.3272 820 18.7204 840 57.7204C860 96.7204 897 142.72 933 137.72C961.8 133.72 984.333 98.7204 992 81.7204" stroke="black"/>
<path d="M1 295.301L98 192.58C116 175.08 139.8 146.233 155 181.433C174 225.433 153 409.58 244 285.58C335 161.58 361.687 145.58 381 145.58C397 145.58 419.92 182.102 425 198.448C444 259.58 444.612 364.631 525 268.58C577 206.448 574 195.933 602 168.933C618.619 152.908 665 95.3008 685 134.301C705 173.301 742 219.301 778 214.301C806.8 210.301 829.333 175.301 837 158.301" stroke="black"/>
<path d="M74 173.031C94.3333 164.364 158.8 66.1988 174 101.399C193 145.399 179 320.399 270 196.399C361 72.3988 409 9.39884 427 2.39883C445 -4.60117 420 91 422 108C424 125 394.444 226.601 516 196.399C602 175.031 653 112.031 713 23.3988C725.942 4.28071 738 -15.6012 758 23.3988C778 62.3988 768 120.399 804 115.399C832.8 111.399 855.333 76.3988 863 59.3988" stroke="black"/>
</svg>
