<svg viewBox="0 0 1124 472" fill="none">
<path d="M1113 44C1033.64 -49.7073 907.524 18.0175 782.049 172.643C738.922 225.789 595.815 365.611 560 368C491.616 372.561 419.932 272.378 298.542 230.369C144.754 177.149 97.3506 471 0 471" stroke="black"/>
<path d="M1123 119.616C1049.62 70.5961 1042.12 59.0385 926.101 139.925C886.225 167.727 747.186 288.585 714.071 289.835C650.842 292.221 595.28 111.603 483.039 89.6277C340.843 61.7873 278.013 329 188 329" stroke="black"/>
<path d="M1075 210C1001.63 164.548 970 73 854 148C814.129 173.779 597.11 273.478 564 274.637C500.779 276.849 441.225 184.013 329 163.637C186.824 137.822 143 280.353 53 280.353" stroke="black"/>
</svg>
